<?xml version="1.0" encoding="UTF-8" standalone="no"?><!DOCTYPE svg PUBLIC "-//W3C//DTD SVG 1.1//EN" "http://www.w3.org/Graphics/SVG/1.1/DTD/svg11.dtd"><!-- Generated by graphviz version 2.40.1 (20161225.0304)
 --><!-- Title: G Pages: 1 --><svg xmlns="http://www.w3.org/2000/svg" xmlns:xlink="http://www.w3.org/1999/xlink" width="1266pt" height="1909pt" viewBox="0.00 0.00 1266.18 1908.80">
<g id="graph0" class="graph" transform="scale(1 1) rotate(0) translate(4 1904.8)">
<title>G</title>
<polygon fill="#ffffff" stroke="transparent" points="-4,4 -4,-1904.8 1262.1809,-1904.8 1262.1809,4 -4,4"/>
<!-- viajes -->
<g id="node1" class="node">
<title>viajes</title>
<ellipse fill="none" stroke="#000000" cx="982" cy="-1794" rx="33.6228" ry="18"/>
<text text-anchor="middle" x="982" y="-1789.8" font-family="Times,serif" font-size="14.00" fill="#000000">viajes</text>
</g>
<!-- informatica -->
<g id="node2" class="node">
<title>informatica</title>
<ellipse fill="none" stroke="#000000" cx="959" cy="-1616.4" rx="55.5927" ry="18"/>
<text text-anchor="middle" x="959" y="-1612.2" font-family="Times,serif" font-size="14.00" fill="#000000">informatica</text>
</g>
<!-- viajes&#45;&gt;informatica -->
<g id="edge1" class="edge">
<title>viajes-&gt;informatica</title>
<path fill="none" stroke="#000000" d="M965.5443,-1778.0104C953.0921,-1764.6859 936.9828,-1744.5034 930,-1723.2 921.1902,-1696.3225 932.1027,-1665.0394 942.968,-1643.3058"/>
<polygon fill="#000000" stroke="#000000" points="946.1347,-1644.8047 947.7244,-1634.3298 939.9494,-1641.5271 946.1347,-1644.8047"/>
<text text-anchor="middle" x="933.5" y="-1701" font-family="Times,serif" font-size="14.00" fill="#000000">1</text>
</g>
<!-- fotografia -->
<g id="node9" class="node">
<title>fotografia</title>
<ellipse fill="none" stroke="#000000" cx="733" cy="-373.2" rx="49.2144" ry="18"/>
<text text-anchor="middle" x="733" y="-369" font-family="Times,serif" font-size="14.00" fill="#000000">fotografia</text>
</g>
<!-- viajes&#45;&gt;fotografia -->
<g id="edge51" class="edge">
<title>viajes-&gt;fotografia</title>
<path fill="none" stroke="#000000" d="M959.0632,-1780.5079C950.5243,-1774.5291 941.3712,-1766.8379 935,-1758 926.2652,-1745.8834 903.038,-1687.0544 894,-1634.4 869.2707,-1490.3304 886,-1451.7766 886,-1305.6 886,-1305.6 886,-1305.6 886,-772.8 886,-689.7888 923.2491,-667.3037 903,-586.8 882.0382,-503.4627 805.4918,-431.0257 762.6126,-395.8532"/>
<polygon fill="#000000" stroke="#000000" points="764.7465,-393.0778 754.7654,-389.5241 760.3519,-398.5265 764.7465,-393.0778"/>
<text text-anchor="middle" x="889.5" y="-1079.4" font-family="Times,serif" font-size="14.00" fill="#000000">1</text>
</g>
<!-- humor -->
<g id="node15" class="node">
<title>humor</title>
<ellipse fill="none" stroke="#000000" cx="982" cy="-1705.2" rx="36.4994" ry="18"/>
<text text-anchor="middle" x="982" y="-1701" font-family="Times,serif" font-size="14.00" fill="#000000">humor</text>
</g>
<!-- viajes&#45;&gt;humor -->
<g id="edge61" class="edge">
<title>viajes-&gt;humor</title>
<path fill="none" stroke="#000000" d="M982,-1775.6006C982,-1763.4949 982,-1747.4076 982,-1733.6674"/>
<polygon fill="#000000" stroke="#000000" points="985.5001,-1733.272 982,-1723.272 978.5001,-1733.2721 985.5001,-1733.272"/>
<text text-anchor="middle" x="985.5" y="-1745.4" font-family="Times,serif" font-size="14.00" fill="#000000">1</text>
</g>
<!-- marketing -->
<g id="node24" class="node">
<title>marketing</title>
<ellipse fill="none" stroke="#000000" cx="182" cy="-18" rx="50.38" ry="18"/>
<text text-anchor="middle" x="182" y="-13.8" font-family="Times,serif" font-size="14.00" fill="#000000">marketing</text>
</g>
<!-- viajes&#45;&gt;marketing -->
<g id="edge26" class="edge">
<title>viajes-&gt;marketing</title>
<path fill="none" stroke="#000000" d="M1015.1521,-1790.4069C1062.0171,-1783.2832 1142,-1762.7022 1142,-1705.2 1142,-1705.2 1142,-1705.2 1142,-106.8 1142,-61.4066 452.4595,-29.1733 242.1619,-20.3983"/>
<polygon fill="#000000" stroke="#000000" points="242.0631,-16.8913 231.9267,-19.974 241.7731,-23.8853 242.0631,-16.8913"/>
<text text-anchor="middle" x="1145.5" y="-901.8" font-family="Times,serif" font-size="14.00" fill="#000000">1</text>
</g>
<!-- tecnologia -->
<g id="node3" class="node">
<title>tecnologia</title>
<ellipse fill="none" stroke="#000000" cx="522" cy="-1527.6" rx="51.0242" ry="18"/>
<text text-anchor="middle" x="522" y="-1523.4" font-family="Times,serif" font-size="14.00" fill="#000000">tecnologia</text>
</g>
<!-- informatica&#45;&gt;tecnologia -->
<g id="edge2" class="edge">
<title>informatica-&gt;tecnologia</title>
<path fill="none" stroke="#000000" d="M911.8181,-1606.8125C830.0846,-1590.2039 662.6427,-1556.1791 576.2422,-1538.6222"/>
<polygon fill="#000000" stroke="#000000" points="576.8677,-1535.1779 566.3709,-1536.6163 575.4737,-1542.0377 576.8677,-1535.1779"/>
<text text-anchor="middle" x="783.5" y="-1567.8" font-family="Times,serif" font-size="14.00" fill="#000000">1</text>
</g>
<!-- romance -->
<g id="node16" class="node">
<title>romance</title>
<ellipse fill="none" stroke="#000000" cx="956" cy="-195.6" rx="44.0622" ry="18"/>
<text text-anchor="middle" x="956" y="-191.4" font-family="Times,serif" font-size="14.00" fill="#000000">romance</text>
</g>
<!-- informatica&#45;&gt;romance -->
<g id="edge14" class="edge">
<title>informatica-&gt;romance</title>
<path fill="none" stroke="#000000" d="M950.1592,-1598.5164C942.2849,-1580.9181 932,-1553.0594 932,-1527.6 932,-1527.6 932,-1527.6 932,-861.6 932,-781.5485 962,-764.0515 962,-684 962,-684 962,-684 962,-284.4 962,-264.0543 960.4127,-241.146 958.8709,-223.6936"/>
<polygon fill="#000000" stroke="#000000" points="962.3436,-223.2362 957.9315,-213.6038 955.3737,-223.8853 962.3436,-223.2362"/>
<text text-anchor="middle" x="935.5" y="-901.8" font-family="Times,serif" font-size="14.00" fill="#000000">1</text>
</g>
<!-- arte -->
<g id="node31" class="node">
<title>arte</title>
<ellipse fill="none" stroke="#000000" cx="1025" cy="-1083.6" rx="27" ry="18"/>
<text text-anchor="middle" x="1025" y="-1079.4" font-family="Times,serif" font-size="14.00" fill="#000000">arte</text>
</g>
<!-- informatica&#45;&gt;arte -->
<g id="edge62" class="edge">
<title>informatica-&gt;arte</title>
<path fill="none" stroke="#000000" d="M975.5892,-1598.9104C989.8044,-1582.0346 1008,-1555.0685 1008,-1527.6 1008,-1527.6 1008,-1527.6 1008,-1172.4 1008,-1151.7319 1012.4973,-1128.8329 1016.8657,-1111.4655"/>
<polygon fill="#000000" stroke="#000000" points="1020.3451,-1111.9994 1019.5275,-1101.4362 1013.5793,-1110.2037 1020.3451,-1111.9994"/>
<text text-anchor="middle" x="1011.5" y="-1345.8" font-family="Times,serif" font-size="14.00" fill="#000000">1</text>
</g>
<!-- tecnologia&#45;&gt;informatica -->
<g id="edge57" class="edge">
<title>tecnologia-&gt;informatica</title>
<path fill="none" stroke="#000000" d="M557.4598,-1540.6096C591.3323,-1552.5734 644.034,-1569.9875 691,-1580.4 759.8924,-1595.6736 840.2776,-1605.4223 894.9084,-1610.8685"/>
<polygon fill="#000000" stroke="#000000" points="894.8473,-1614.3791 905.1403,-1611.8682 895.528,-1607.4123 894.8473,-1614.3791"/>
<text text-anchor="middle" x="694.5" y="-1567.8" font-family="Times,serif" font-size="14.00" fill="#000000">1</text>
</g>
<!-- periodismo -->
<g id="node4" class="node">
<title>periodismo</title>
<ellipse fill="none" stroke="#000000" cx="315" cy="-284.4" rx="54.4739" ry="18"/>
<text text-anchor="middle" x="315" y="-280.2" font-family="Times,serif" font-size="14.00" fill="#000000">periodismo</text>
</g>
<!-- tecnologia&#45;&gt;periodismo -->
<g id="edge3" class="edge">
<title>tecnologia-&gt;periodismo</title>
<path fill="none" stroke="#000000" d="M470.7953,-1526.4722C389.5746,-1523.9598 235.4402,-1516.0338 187,-1491.6 140.3777,-1468.0831 121,-1446.6177 121,-1394.4 121,-1394.4 121,-1394.4 121,-772.8 121,-713.5983 122,-698.8017 122,-639.6 122,-639.6 122,-639.6 122,-506.4 122,-412.5972 221.3509,-339.1176 277.489,-305.0854"/>
<polygon fill="#000000" stroke="#000000" points="279.2971,-308.0823 286.1059,-299.9651 275.7212,-302.0646 279.2971,-308.0823"/>
<text text-anchor="middle" x="124.5" y="-901.8" font-family="Times,serif" font-size="14.00" fill="#000000">1</text>
</g>
<!-- negocios -->
<g id="node20" class="node">
<title>negocios</title>
<ellipse fill="none" stroke="#000000" cx="492" cy="-1438.8" rx="45.2266" ry="18"/>
<text text-anchor="middle" x="492" y="-1434.6" font-family="Times,serif" font-size="14.00" fill="#000000">negocios</text>
</g>
<!-- tecnologia&#45;&gt;negocios -->
<g id="edge37" class="edge">
<title>tecnologia-&gt;negocios</title>
<path fill="none" stroke="#000000" d="M515.9291,-1509.63C511.7408,-1497.2327 506.0922,-1480.513 501.3349,-1466.4312"/>
<polygon fill="#000000" stroke="#000000" points="504.5785,-1465.097 498.0619,-1456.7433 497.9468,-1467.3375 504.5785,-1465.097"/>
<text text-anchor="middle" x="513.5" y="-1479" font-family="Times,serif" font-size="14.00" fill="#000000">1</text>
</g>
<!-- filosofia -->
<g id="node5" class="node">
<title>filosofia</title>
<ellipse fill="none" stroke="#000000" cx="451" cy="-195.6" rx="43.4338" ry="18"/>
<text text-anchor="middle" x="451" y="-191.4" font-family="Times,serif" font-size="14.00" fill="#000000">filosofia</text>
</g>
<!-- periodismo&#45;&gt;filosofia -->
<g id="edge4" class="edge">
<title>periodismo-&gt;filosofia</title>
<path fill="none" stroke="#000000" d="M339.6286,-268.319C361.8532,-253.8076 394.6861,-232.3696 418.949,-216.5274"/>
<polygon fill="#000000" stroke="#000000" points="421.005,-219.365 427.4647,-210.9672 417.1779,-213.5038 421.005,-219.365"/>
<text text-anchor="middle" x="399.5" y="-235.8" font-family="Times,serif" font-size="14.00" fill="#000000">1</text>
</g>
<!-- investigacion -->
<g id="node19" class="node">
<title>investigacion</title>
<ellipse fill="none" stroke="#000000" cx="492" cy="-1261.2" rx="62.5585" ry="18"/>
<text text-anchor="middle" x="492" y="-1257" font-family="Times,serif" font-size="14.00" fill="#000000">investigacion</text>
</g>
<!-- periodismo&#45;&gt;investigacion -->
<g id="edge22" class="edge">
<title>periodismo-&gt;investigacion</title>
<path fill="none" stroke="#000000" d="M318.4346,-302.3854C321.0674,-316.6619 324.6384,-337.1521 327,-355.2 330.1272,-379.0989 330.8877,-385.123 332,-409.2 332.3446,-416.6587 333.196,-418.6297 332,-426 330.6492,-434.3239 327.3508,-435.6761 326,-444 323.4371,-459.7934 325.3574,-464.0129 326,-480 330.448,-590.6679 346,-617.6427 346,-728.4 346,-1039.2 346,-1039.2 346,-1039.2 346,-1083.7881 429.255,-1187.6287 470.0263,-1235.8078"/>
<polygon fill="#000000" stroke="#000000" points="467.5034,-1238.2436 476.6514,-1243.5883 472.8331,-1233.7054 467.5034,-1238.2436"/>
<text text-anchor="middle" x="349.5" y="-768.6" font-family="Times,serif" font-size="14.00" fill="#000000">1</text>
</g>
<!-- psicologia -->
<g id="node6" class="node">
<title>psicologia</title>
<ellipse fill="none" stroke="#000000" cx="466" cy="-906" rx="50.9619" ry="18"/>
<text text-anchor="middle" x="466" y="-901.8" font-family="Times,serif" font-size="14.00" fill="#000000">psicologia</text>
</g>
<!-- filosofia&#45;&gt;psicologia -->
<g id="edge5" class="edge">
<title>filosofia-&gt;psicologia</title>
<path fill="none" stroke="#000000" d="M464.7524,-212.8302C477.0013,-229.9441 493,-257.4545 493,-284.4 493,-417.6 493,-417.6 493,-417.6 493,-538.0674 443,-563.5326 443,-684 443,-817.2 443,-817.2 443,-817.2 443,-838.234 449.1222,-861.2009 455.0494,-878.5074"/>
<polygon fill="#000000" stroke="#000000" points="451.7829,-879.767 458.4689,-887.9857 458.3675,-877.3914 451.7829,-879.767"/>
<text text-anchor="middle" x="477.5" y="-546.6" font-family="Times,serif" font-size="14.00" fill="#000000">1</text>
</g>
<!-- poesia -->
<g id="node25" class="node">
<title>poesia</title>
<ellipse fill="none" stroke="#000000" cx="584" cy="-728.4" rx="35.9135" ry="18"/>
<text text-anchor="middle" x="584" y="-724.2" font-family="Times,serif" font-size="14.00" fill="#000000">poesia</text>
</g>
<!-- psicologia&#45;&gt;poesia -->
<g id="edge48" class="edge">
<title>psicologia-&gt;poesia</title>
<path fill="none" stroke="#000000" d="M468.1228,-888.0057C471.4615,-865.6073 479.5723,-826.9273 498,-799.2 511.8907,-778.2993 533.7964,-760.3959 552.0223,-747.8215"/>
<polygon fill="#000000" stroke="#000000" points="554.2443,-750.5466 560.6227,-742.0869 550.3609,-744.7226 554.2443,-750.5466"/>
<text text-anchor="middle" x="501.5" y="-813" font-family="Times,serif" font-size="14.00" fill="#000000">1</text>
</g>
<!-- cine -->
<g id="node29" class="node">
<title>cine</title>
<ellipse fill="none" stroke="#000000" cx="541" cy="-817.2" rx="27.2447" ry="18"/>
<text text-anchor="middle" x="541" y="-813" font-family="Times,serif" font-size="14.00" fill="#000000">cine</text>
</g>
<!-- psicologia&#45;&gt;cine -->
<g id="edge43" class="edge">
<title>psicologia-&gt;cine</title>
<path fill="none" stroke="#000000" d="M484.7095,-889.0274C490.7746,-883.2084 497.3821,-876.5167 503,-870 510.4883,-861.3136 518.015,-851.2106 524.3713,-842.1816"/>
<polygon fill="#000000" stroke="#000000" points="527.2638,-844.1525 530.0675,-833.9353 521.5042,-840.174 527.2638,-844.1525"/>
<text text-anchor="middle" x="520.5" y="-857.4" font-family="Times,serif" font-size="14.00" fill="#000000">1</text>
</g>
<!-- economia -->
<g id="node7" class="node">
<title>economia</title>
<ellipse fill="none" stroke="#000000" cx="397" cy="-550.8" rx="48.6559" ry="18"/>
<text text-anchor="middle" x="397" y="-546.6" font-family="Times,serif" font-size="14.00" fill="#000000">economia</text>
</g>
<!-- religion -->
<g id="node8" class="node">
<title>religion</title>
<ellipse fill="none" stroke="#000000" cx="424" cy="-462" rx="41.149" ry="18"/>
<text text-anchor="middle" x="424" y="-457.8" font-family="Times,serif" font-size="14.00" fill="#000000">religion</text>
</g>
<!-- economia&#45;&gt;religion -->
<g id="edge6" class="edge">
<title>economia-&gt;religion</title>
<path fill="none" stroke="#000000" d="M402.4639,-532.83C406.2333,-520.4327 411.317,-503.713 415.5986,-489.6312"/>
<polygon fill="#000000" stroke="#000000" points="418.9838,-490.529 418.5443,-479.9433 412.2865,-488.4926 418.9838,-490.529"/>
<text text-anchor="middle" x="416.5" y="-502.2" font-family="Times,serif" font-size="14.00" fill="#000000">1</text>
</g>
<!-- biografia -->
<g id="node12" class="node">
<title>biografia</title>
<ellipse fill="none" stroke="#000000" cx="567" cy="-462" rx="45.7848" ry="18"/>
<text text-anchor="middle" x="567" y="-457.8" font-family="Times,serif" font-size="14.00" fill="#000000">biografia</text>
</g>
<!-- economia&#45;&gt;biografia -->
<g id="edge10" class="edge">
<title>economia-&gt;biografia</title>
<path fill="none" stroke="#000000" d="M425.4542,-535.9369C454.2739,-520.8828 498.9657,-497.5379 530.4051,-481.1155"/>
<polygon fill="#000000" stroke="#000000" points="532.0569,-484.2014 539.3001,-476.4691 528.8159,-477.9969 532.0569,-484.2014"/>
<text text-anchor="middle" x="501.5" y="-502.2" font-family="Times,serif" font-size="14.00" fill="#000000">1</text>
</g>
<!-- servicios -->
<g id="node21" class="node">
<title>servicios</title>
<ellipse fill="none" stroke="#000000" cx="273" cy="-373.2" rx="45.2208" ry="18"/>
<text text-anchor="middle" x="273" y="-369" font-family="Times,serif" font-size="14.00" fill="#000000">servicios</text>
</g>
<!-- economia&#45;&gt;servicios -->
<g id="edge35" class="edge">
<title>economia-&gt;servicios</title>
<path fill="none" stroke="#000000" d="M384.6571,-533.1217C362.6528,-501.606 316.5661,-435.5979 291.0184,-399.007"/>
<polygon fill="#000000" stroke="#000000" points="293.8875,-397.0024 285.293,-390.8068 288.148,-401.0097 293.8875,-397.0024"/>
<text text-anchor="middle" x="351.5" y="-457.8" font-family="Times,serif" font-size="14.00" fill="#000000">1</text>
</g>
<!-- economia&#45;&gt;poesia -->
<g id="edge28" class="edge">
<title>economia-&gt;poesia</title>
<path fill="none" stroke="#000000" d="M413.1661,-567.8178C433.6495,-589.2087 470.2375,-626.8494 503,-657.6 520.7432,-674.2536 541.4066,-692.2945 557.422,-705.997"/>
<polygon fill="#000000" stroke="#000000" points="555.4512,-708.916 565.3332,-712.7367 559.9907,-703.5874 555.4512,-708.916"/>
<text text-anchor="middle" x="506.5" y="-635.4" font-family="Times,serif" font-size="14.00" fill="#000000">1</text>
</g>
<!-- religion&#45;&gt;fotografia -->
<g id="edge7" class="edge">
<title>religion-&gt;fotografia</title>
<path fill="none" stroke="#000000" d="M457.8625,-451.6394C493.4356,-440.8163 551.0466,-423.4603 601,-409.2 628.1016,-401.4632 658.4369,-393.1647 683.1864,-386.4872"/>
<polygon fill="#000000" stroke="#000000" points="684.3286,-389.8044 693.075,-383.8252 682.509,-383.0451 684.3286,-389.8044"/>
<text text-anchor="middle" x="604.5" y="-413.4" font-family="Times,serif" font-size="14.00" fill="#000000">1</text>
</g>
<!-- religion&#45;&gt;servicios -->
<g id="edge54" class="edge">
<title>religion-&gt;servicios</title>
<path fill="none" stroke="#000000" d="M399.4032,-447.5351C374.3675,-432.8122 335.3542,-409.8692 307.2913,-393.366"/>
<polygon fill="#000000" stroke="#000000" points="308.9906,-390.305 298.5964,-388.2527 305.4421,-396.3389 308.9906,-390.305"/>
<text text-anchor="middle" x="366.5" y="-413.4" font-family="Times,serif" font-size="14.00" fill="#000000">1</text>
</g>
<!-- ciencia -->
<g id="node10" class="node">
<title>ciencia</title>
<ellipse fill="none" stroke="#000000" cx="820" cy="-284.4" rx="38.2587" ry="18"/>
<text text-anchor="middle" x="820" y="-280.2" font-family="Times,serif" font-size="14.00" fill="#000000">ciencia</text>
</g>
<!-- fotografia&#45;&gt;ciencia -->
<g id="edge8" class="edge">
<title>fotografia-&gt;ciencia</title>
<path fill="none" stroke="#000000" d="M749.7745,-356.0785C763.0616,-342.5164 781.7802,-323.4105 796.5508,-308.3344"/>
<polygon fill="#000000" stroke="#000000" points="799.367,-310.4611 803.8653,-300.8685 794.3669,-305.5622 799.367,-310.4611"/>
<text text-anchor="middle" x="788.5" y="-324.6" font-family="Times,serif" font-size="14.00" fill="#000000">1</text>
</g>
<!-- politica -->
<g id="node33" class="node">
<title>politica</title>
<ellipse fill="none" stroke="#000000" cx="724" cy="-284.4" rx="40.0031" ry="18"/>
<text text-anchor="middle" x="724" y="-280.2" font-family="Times,serif" font-size="14.00" fill="#000000">politica</text>
</g>
<!-- fotografia&#45;&gt;politica -->
<g id="edge52" class="edge">
<title>fotografia-&gt;politica</title>
<path fill="none" stroke="#000000" d="M731.1352,-354.8006C729.8961,-342.575 728.2455,-326.2887 726.8439,-312.4599"/>
<polygon fill="#000000" stroke="#000000" points="730.3222,-312.0681 725.8316,-302.472 723.3579,-312.774 730.3222,-312.0681"/>
<text text-anchor="middle" x="733.5" y="-324.6" font-family="Times,serif" font-size="14.00" fill="#000000">1</text>
</g>
<!-- ciencia&#45;&gt;romance -->
<g id="edge70" class="edge">
<title>ciencia-&gt;romance</title>
<path fill="none" stroke="#000000" d="M834.9553,-267.621C845.5962,-256.3927 860.6716,-241.8504 876,-231.6 887.5012,-223.9089 900.9137,-217.143 913.4329,-211.6142"/>
<polygon fill="#000000" stroke="#000000" points="914.9557,-214.77 922.7857,-207.6326 912.2138,-208.3293 914.9557,-214.77"/>
<text text-anchor="middle" x="879.5" y="-235.8" font-family="Times,serif" font-size="14.00" fill="#000000">1</text>
</g>
<!-- fantasia -->
<g id="node11" class="node">
<title>fantasia</title>
<ellipse fill="none" stroke="#000000" cx="53" cy="-639.6" rx="41.1258" ry="18"/>
<text text-anchor="middle" x="53" y="-635.4" font-family="Times,serif" font-size="14.00" fill="#000000">fantasia</text>
</g>
<!-- fantasia&#45;&gt;economia -->
<g id="edge9" class="edge">
<title>fantasia-&gt;economia</title>
<path fill="none" stroke="#000000" d="M88.5184,-630.4313C150.0381,-614.5506 276.5711,-581.8875 346.9647,-563.7161"/>
<polygon fill="#000000" stroke="#000000" points="348.1211,-567.0324 356.9289,-561.1439 346.3715,-560.2546 348.1211,-567.0324"/>
<text text-anchor="middle" x="259.5" y="-591" font-family="Times,serif" font-size="14.00" fill="#000000">1</text>
</g>
<!-- leyendas -->
<g id="node17" class="node">
<title>leyendas</title>
<ellipse fill="none" stroke="#000000" cx="551" cy="-106.8" rx="44.6434" ry="18"/>
<text text-anchor="middle" x="551" y="-102.6" font-family="Times,serif" font-size="14.00" fill="#000000">leyendas</text>
</g>
<!-- fantasia&#45;&gt;leyendas -->
<g id="edge39" class="edge">
<title>fantasia-&gt;leyendas</title>
<path fill="none" stroke="#000000" d="M50.7466,-621.6049C48.7003,-603.6888 46,-575.3885 46,-550.8 46,-550.8 46,-550.8 46,-195.6 46,-150.3695 90.0048,-156.843 133,-142.8 198.9693,-121.2533 398.3317,-111.837 495.9498,-108.4308"/>
<polygon fill="#000000" stroke="#000000" points="496.3288,-111.92 506.204,-108.0821 496.0908,-104.924 496.3288,-111.92"/>
<text text-anchor="middle" x="49.5" y="-369" font-family="Times,serif" font-size="14.00" fill="#000000">1</text>
</g>
<!-- historia -->
<g id="node18" class="node">
<title>historia</title>
<ellipse fill="none" stroke="#000000" cx="413" cy="-1350" rx="40.0031" ry="18"/>
<text text-anchor="middle" x="413" y="-1345.8" font-family="Times,serif" font-size="14.00" fill="#000000">historia</text>
</g>
<!-- fantasia&#45;&gt;historia -->
<g id="edge18" class="edge">
<title>fantasia-&gt;historia</title>
<path fill="none" stroke="#000000" d="M71.3357,-655.8467C77.3767,-661.7203 83.8576,-668.6296 89,-675.6 90.6952,-677.8978 281,-1036.3446 281,-1039.2 281,-1261.2 281,-1261.2 281,-1261.2 281,-1303.7947 328.9036,-1327.296 366.995,-1339.2503"/>
<polygon fill="#000000" stroke="#000000" points="366.3486,-1342.7088 376.9304,-1342.1838 368.3309,-1335.9953 366.3486,-1342.7088"/>
<text text-anchor="middle" x="271.5" y="-990.6" font-family="Times,serif" font-size="14.00" fill="#000000">1</text>
</g>
<!-- juegos -->
<g id="node13" class="node">
<title>juegos</title>
<ellipse fill="none" stroke="#000000" cx="582" cy="-1083.6" rx="36.4975" ry="18"/>
<text text-anchor="middle" x="582" y="-1079.4" font-family="Times,serif" font-size="14.00" fill="#000000">juegos</text>
</g>
<!-- biografia&#45;&gt;juegos -->
<g id="edge11" class="edge">
<title>biografia-&gt;juegos</title>
<path fill="none" stroke="#000000" d="M575.9419,-479.7428C578.6895,-485.4974 581.615,-491.9565 584,-498 614.4307,-575.1117 628.1791,-593.6984 641,-675.6 663.3794,-818.562 613.6078,-990.1978 591.6929,-1056.0426"/>
<polygon fill="#000000" stroke="#000000" points="588.3213,-1055.0871 588.4301,-1065.6814 594.9517,-1057.3316 588.3213,-1055.0871"/>
<text text-anchor="middle" x="650.5" y="-768.6" font-family="Times,serif" font-size="14.00" fill="#000000">1</text>
</g>
<!-- ensayo -->
<g id="node14" class="node">
<title>ensayo</title>
<ellipse fill="none" stroke="#000000" cx="466" cy="-994.8" rx="37.7025" ry="18"/>
<text text-anchor="middle" x="466" y="-990.6" font-family="Times,serif" font-size="14.00" fill="#000000">ensayo</text>
</g>
<!-- juegos&#45;&gt;ensayo -->
<g id="edge12" class="edge">
<title>juegos-&gt;ensayo</title>
<path fill="none" stroke="#000000" d="M562.0589,-1068.3347C543.3017,-1053.9758 515.0365,-1032.3383 494.0173,-1016.2478"/>
<polygon fill="#000000" stroke="#000000" points="496.1371,-1013.4627 486.0691,-1010.1632 491.8821,-1019.021 496.1371,-1013.4627"/>
<text text-anchor="middle" x="538.5" y="-1035" font-family="Times,serif" font-size="14.00" fill="#000000">1</text>
</g>
<!-- ensayo&#45;&gt;psicologia -->
<g id="edge34" class="edge">
<title>ensayo-&gt;psicologia</title>
<path fill="none" stroke="#000000" d="M466,-976.4006C466,-964.2949 466,-948.2076 466,-934.4674"/>
<polygon fill="#000000" stroke="#000000" points="469.5001,-934.072 466,-924.072 462.5001,-934.0721 469.5001,-934.072"/>
<text text-anchor="middle" x="469.5" y="-946.2" font-family="Times,serif" font-size="14.00" fill="#000000">1</text>
</g>
<!-- humor&#45;&gt;informatica -->
<g id="edge13" class="edge">
<title>humor-&gt;informatica</title>
<path fill="none" stroke="#000000" d="M977.3456,-1687.23C974.1346,-1674.8327 969.804,-1658.113 966.1567,-1644.0312"/>
<polygon fill="#000000" stroke="#000000" points="969.5431,-1643.1462 963.6475,-1634.3433 962.7667,-1644.9014 969.5431,-1643.1462"/>
<text text-anchor="middle" x="976.5" y="-1656.6" font-family="Times,serif" font-size="14.00" fill="#000000">1</text>
</g>
<!-- romance&#45;&gt;leyendas -->
<g id="edge15" class="edge">
<title>romance-&gt;leyendas</title>
<path fill="none" stroke="#000000" d="M939.2329,-178.7537C925.9841,-166.5607 906.3836,-150.8623 886,-142.8 836.3796,-123.1738 687.3343,-113.2371 605.784,-109.1473"/>
<polygon fill="#000000" stroke="#000000" points="605.8628,-105.6471 595.7038,-108.6543 605.5208,-112.6387 605.8628,-105.6471"/>
<text text-anchor="middle" x="919.5" y="-147" font-family="Times,serif" font-size="14.00" fill="#000000">1</text>
</g>
<!-- romance&#45;&gt;negocios -->
<g id="edge64" class="edge">
<title>romance-&gt;negocios</title>
<path fill="none" stroke="#000000" d="M950.5183,-213.7245C941.6439,-243.2591 923.7396,-303.6526 910,-355.2 877.7842,-476.0652 794,-780.915 794,-906 794,-1039.2 794,-1039.2 794,-1039.2 794,-1098.4017 793,-1113.1983 793,-1172.4 793,-1350 793,-1350 793,-1350 793,-1400.7847 633.3826,-1424.6953 546.6179,-1433.9411"/>
<polygon fill="#000000" stroke="#000000" points="546.0003,-1430.4863 536.4136,-1434.9968 546.7207,-1437.4491 546.0003,-1430.4863"/>
<text text-anchor="middle" x="808.5" y="-813" font-family="Times,serif" font-size="14.00" fill="#000000">1</text>
</g>
<!-- ficcion -->
<g id="node23" class="node">
<title>ficcion</title>
<ellipse fill="none" stroke="#000000" cx="1208" cy="-106.8" rx="37.6986" ry="18"/>
<text text-anchor="middle" x="1208" y="-102.6" font-family="Times,serif" font-size="14.00" fill="#000000">ficcion</text>
</g>
<!-- romance&#45;&gt;ficcion -->
<g id="edge71" class="edge">
<title>romance-&gt;ficcion</title>
<path fill="none" stroke="#000000" d="M989.4637,-183.808C1035.5576,-167.5654 1118.4744,-138.3471 1167.8512,-120.9477"/>
<polygon fill="#000000" stroke="#000000" points="1169.2876,-124.1525 1177.5559,-117.5279 1166.9611,-117.5504 1169.2876,-124.1525"/>
<text text-anchor="middle" x="1107.5" y="-147" font-family="Times,serif" font-size="14.00" fill="#000000">1</text>
</g>
<!-- leyendas&#45;&gt;tecnologia -->
<g id="edge16" class="edge">
<title>leyendas-&gt;tecnologia</title>
<path fill="none" stroke="#000000" d="M593.2686,-112.8923C658.7088,-124.4778 784.6335,-155.6823 858,-231.6 899.4152,-274.4553 898.2115,-296.7806 910,-355.2 916.2267,-386.0572 910.8814,-394.6529 908,-426 877.4746,-758.0939 831,-838.9061 831,-1172.4 831,-1438.8 831,-1438.8 831,-1438.8 831,-1490.06 671.9398,-1513.4759 582.0601,-1522.6156"/>
<polygon fill="#000000" stroke="#000000" points="581.5975,-1519.1441 571.9896,-1523.6094 582.2851,-1526.1103 581.5975,-1519.1441"/>
<text text-anchor="middle" x="861.5" y="-813" font-family="Times,serif" font-size="14.00" fill="#000000">1</text>
</g>
<!-- leyendas&#45;&gt;psicologia -->
<g id="edge47" class="edge">
<title>leyendas-&gt;psicologia</title>
<path fill="none" stroke="#000000" d="M506.8886,-110.4942C425.1773,-119.9889 251.8004,-153.1534 177,-266.4 123.5301,-347.3525 191.1627,-388.0141 222,-480 238.372,-528.8369 249.7259,-538.2749 267,-586.8 297.1956,-671.6231 275.6029,-705.276 324,-781.2 351.8976,-824.965 399.5119,-862.281 431.8399,-884.4161"/>
<polygon fill="#000000" stroke="#000000" points="430.271,-887.5786 440.5236,-890.2496 434.1744,-881.7679 430.271,-887.5786"/>
<text text-anchor="middle" x="239.5" y="-502.2" font-family="Times,serif" font-size="14.00" fill="#000000">1</text>
</g>
<!-- leyendas&#45;&gt;fantasia -->
<g id="edge17" class="edge">
<title>leyendas-&gt;fantasia</title>
<path fill="none" stroke="#000000" d="M506.0781,-107.9659C407.7628,-110.9273 180.1787,-120.1714 154,-142.8 -4.1305,-279.4863 97.7758,-398.0242 60,-603.6 59.5368,-606.1205 59.0463,-608.7384 58.5484,-611.3607"/>
<polygon fill="#000000" stroke="#000000" points="55.0886,-610.8182 56.6342,-621.2997 61.9623,-612.1421 55.0886,-610.8182"/>
<text text-anchor="middle" x="67.5" y="-369" font-family="Times,serif" font-size="14.00" fill="#000000">1</text>
</g>
<!-- leyendas&#45;&gt;marketing -->
<g id="edge66" class="edge">
<title>leyendas-&gt;marketing</title>
<path fill="none" stroke="#000000" d="M512.208,-97.4647C445.4941,-81.41 308.9961,-48.5617 234.0774,-30.5324"/>
<polygon fill="#000000" stroke="#000000" points="234.4698,-27.027 223.9284,-28.0901 232.8319,-33.8327 234.4698,-27.027"/>
<text text-anchor="middle" x="403.5" y="-58.2" font-family="Times,serif" font-size="14.00" fill="#000000">1</text>
</g>
<!-- leyendas&#45;&gt;poesia -->
<g id="edge40" class="edge">
<title>leyendas-&gt;poesia</title>
<path fill="none" stroke="#000000" d="M573.31,-122.7656C592.8004,-138.7499 618,-165.2792 618,-195.6 618,-328.8 618,-328.8 618,-328.8 618,-380.0309 621.111,-392.7769 622,-444 623.9279,-555.0824 616.1818,-583.5377 594,-692.4 593.4484,-695.1073 592.8035,-697.9103 592.1116,-700.7021"/>
<polygon fill="#000000" stroke="#000000" points="588.6739,-700.0106 589.4828,-710.5745 595.4382,-701.8118 588.6739,-700.0106"/>
<text text-anchor="middle" x="625.5" y="-413.4" font-family="Times,serif" font-size="14.00" fill="#000000">1</text>
</g>
<!-- historia&#45;&gt;investigacion -->
<g id="edge19" class="edge">
<title>historia-&gt;investigacion</title>
<path fill="none" stroke="#000000" d="M428.232,-1332.8785C439.884,-1319.781 456.1359,-1301.5131 469.3163,-1286.6976"/>
<polygon fill="#000000" stroke="#000000" points="472.2422,-1288.6745 476.274,-1278.8768 467.0123,-1284.0217 472.2422,-1288.6745"/>
<text text-anchor="middle" x="463.5" y="-1301.4" font-family="Times,serif" font-size="14.00" fill="#000000">1</text>
</g>
<!-- terror -->
<g id="node26" class="node">
<title>terror</title>
<ellipse fill="none" stroke="#000000" cx="379" cy="-1261.2" rx="32.4595" ry="18"/>
<text text-anchor="middle" x="379" y="-1257" font-family="Times,serif" font-size="14.00" fill="#000000">terror</text>
</g>
<!-- historia&#45;&gt;terror -->
<g id="edge31" class="edge">
<title>historia-&gt;terror</title>
<path fill="none" stroke="#000000" d="M406.1196,-1332.03C401.3416,-1319.5511 394.8869,-1302.6928 389.4732,-1288.5536"/>
<polygon fill="#000000" stroke="#000000" points="392.5985,-1286.9276 385.7541,-1278.8402 386.0613,-1289.4306 392.5985,-1286.9276"/>
<text text-anchor="middle" x="403.5" y="-1301.4" font-family="Times,serif" font-size="14.00" fill="#000000">1</text>
</g>
<!-- investigacion&#45;&gt;negocios -->
<g id="edge20" class="edge">
<title>investigacion-&gt;negocios</title>
<path fill="none" stroke="#000000" d="M492,-1279.2543C492,-1310.2691 492,-1373.8781 492,-1410.722"/>
<polygon fill="#000000" stroke="#000000" points="488.5001,-1410.7934 492,-1420.7934 495.5001,-1410.7934 488.5001,-1410.7934"/>
<text text-anchor="middle" x="495.5" y="-1345.8" font-family="Times,serif" font-size="14.00" fill="#000000">1</text>
</g>
<!-- thriller -->
<g id="node22" class="node">
<title>thriller</title>
<ellipse fill="none" stroke="#000000" cx="624" cy="-1172.4" rx="37.1328" ry="18"/>
<text text-anchor="middle" x="624" y="-1168.2" font-family="Times,serif" font-size="14.00" fill="#000000">thriller</text>
</g>
<!-- investigacion&#45;&gt;thriller -->
<g id="edge23" class="edge">
<title>investigacion-&gt;thriller</title>
<path fill="none" stroke="#000000" d="M516.8282,-1244.4974C538.549,-1229.8852 570.1754,-1208.6093 593.4446,-1192.9555"/>
<polygon fill="#000000" stroke="#000000" points="595.5719,-1195.7427 601.9155,-1187.2569 591.6646,-1189.9346 595.5719,-1195.7427"/>
<text text-anchor="middle" x="573.5" y="-1212.6" font-family="Times,serif" font-size="14.00" fill="#000000">1</text>
</g>
<!-- negocios&#45;&gt;tecnologia -->
<g id="edge56" class="edge">
<title>negocios-&gt;tecnologia</title>
<path fill="none" stroke="#000000" d="M490.4766,-1456.9206C490.2188,-1467.3608 490.9688,-1480.5608 495,-1491.6 496.2813,-1495.1087 498.0258,-1498.5626 500.0158,-1501.8596"/>
<polygon fill="#000000" stroke="#000000" points="497.1623,-1503.8873 505.7072,-1510.1511 502.9335,-1499.9257 497.1623,-1503.8873"/>
<text text-anchor="middle" x="498.5" y="-1479" font-family="Times,serif" font-size="14.00" fill="#000000">1</text>
</g>
<!-- negocios&#45;&gt;fotografia -->
<g id="edge65" class="edge">
<title>negocios-&gt;fotografia</title>
<path fill="none" stroke="#000000" d="M533.6513,-1431.5444C599.9309,-1418.8014 722,-1389.9141 722,-1350 722,-1350 722,-1350 722,-462 722,-441.6741 724.8735,-418.9283 727.6833,-401.546"/>
<polygon fill="#000000" stroke="#000000" points="731.1679,-401.9318 729.3982,-391.4858 724.2675,-400.7554 731.1679,-401.9318"/>
<text text-anchor="middle" x="725.5" y="-901.8" font-family="Times,serif" font-size="14.00" fill="#000000">1</text>
</g>
<!-- negocios&#45;&gt;fantasia -->
<g id="edge38" class="edge">
<title>negocios-&gt;fantasia</title>
<path fill="none" stroke="#000000" d="M447.4348,-1435.2445C375.2087,-1429.134 238.8222,-1416.0173 221,-1402.8 200.2953,-1387.4449 197,-1375.7772 197,-1350 197,-1350 197,-1350 197,-1039.2 197,-994.3643 202.0607,-973.3424 170,-942 146.7217,-919.2432 123.3459,-945.6109 99,-924 76.778,-904.2744 75,-891.3139 75,-861.6 75,-861.6 75,-861.6 75,-728.4 75,-707.4224 69.144,-684.4536 63.4745,-667.1322"/>
<polygon fill="#000000" stroke="#000000" points="66.7717,-665.9572 60.2036,-657.6439 60.1538,-668.2386 66.7717,-665.9572"/>
<text text-anchor="middle" x="200.5" y="-1035" font-family="Times,serif" font-size="14.00" fill="#000000">1</text>
</g>
<!-- negocios&#45;&gt;historia -->
<g id="edge30" class="edge">
<title>negocios-&gt;historia</title>
<path fill="none" stroke="#000000" d="M476.768,-1421.6785C464.889,-1408.3259 448.2292,-1389.5994 434.917,-1374.6358"/>
<polygon fill="#000000" stroke="#000000" points="437.1791,-1371.9128 427.9173,-1366.7678 431.9492,-1376.5655 437.1791,-1371.9128"/>
<text text-anchor="middle" x="463.5" y="-1390.2" font-family="Times,serif" font-size="14.00" fill="#000000">1</text>
</g>
<!-- servicios&#45;&gt;tecnologia -->
<g id="edge36" class="edge">
<title>servicios-&gt;tecnologia</title>
<path fill="none" stroke="#000000" d="M259.6218,-390.5903C255.569,-396.326 251.3172,-402.863 248,-409.2 229.0924,-445.3195 232.3525,-457.8995 225,-498 195.3801,-659.5477 159,-697.3593 159,-861.6 159,-1438.8 159,-1438.8 159,-1438.8 159,-1500.1755 357.2748,-1519.3341 460.75,-1525.1535"/>
<polygon fill="#000000" stroke="#000000" points="460.5874,-1528.6497 470.7609,-1525.6916 460.9632,-1521.6598 460.5874,-1528.6497"/>
<text text-anchor="middle" x="162.5" y="-946.2" font-family="Times,serif" font-size="14.00" fill="#000000">1</text>
</g>
<!-- servicios&#45;&gt;periodismo -->
<g id="edge21" class="edge">
<title>servicios-&gt;periodismo</title>
<path fill="none" stroke="#000000" d="M281.4993,-355.23C287.4199,-342.7123 295.4246,-325.7879 302.1248,-311.6218"/>
<polygon fill="#000000" stroke="#000000" points="305.4016,-312.8796 306.5133,-302.3433 299.0737,-309.8867 305.4016,-312.8796"/>
<text text-anchor="middle" x="301.5" y="-324.6" font-family="Times,serif" font-size="14.00" fill="#000000">1</text>
</g>
<!-- servicios&#45;&gt;negocios -->
<g id="edge55" class="edge">
<title>servicios-&gt;negocios</title>
<path fill="none" stroke="#000000" d="M264.6041,-391.2887C253.6876,-416.506 236,-463.919 236,-506.4 236,-639.6 236,-639.6 236,-639.6 236,-817.2006 235,-861.5994 235,-1039.2 235,-1350 235,-1350 235,-1350 235,-1392.7188 363.4545,-1419.4191 438.7336,-1431.3986"/>
<polygon fill="#000000" stroke="#000000" points="438.5651,-1434.9143 448.984,-1432.9914 439.64,-1427.9973 438.5651,-1434.9143"/>
<text text-anchor="middle" x="239.5" y="-901.8" font-family="Times,serif" font-size="14.00" fill="#000000">1</text>
</g>
<!-- thriller&#45;&gt;juegos -->
<g id="edge24" class="edge">
<title>thriller-&gt;juegos</title>
<path fill="none" stroke="#000000" d="M615.5007,-1154.43C609.5412,-1141.8299 601.4699,-1124.765 594.7431,-1110.5426"/>
<polygon fill="#000000" stroke="#000000" points="597.783,-1108.7836 590.3434,-1101.2402 591.4551,-1111.7766 597.783,-1108.7836"/>
<text text-anchor="middle" x="610.5" y="-1123.8" font-family="Times,serif" font-size="14.00" fill="#000000">1</text>
</g>
<!-- thriller&#45;&gt;arte -->
<g id="edge69" class="edge">
<title>thriller-&gt;arte</title>
<path fill="none" stroke="#000000" d="M658.189,-1164.829C733.3497,-1148.1849 912.3557,-1108.5447 989.0813,-1091.5541"/>
<polygon fill="#000000" stroke="#000000" points="990.2006,-1094.8911 999.2073,-1089.3117 988.6871,-1088.0566 990.2006,-1094.8911"/>
<text text-anchor="middle" x="864.5" y="-1123.8" font-family="Times,serif" font-size="14.00" fill="#000000">1</text>
</g>
<!-- ficcion&#45;&gt;viajes -->
<g id="edge25" class="edge">
<title>ficcion-&gt;viajes</title>
<path fill="none" stroke="#000000" d="M1207.0343,-124.8219C1206.1573,-142.7583 1205,-171.0735 1205,-195.6 1205,-1705.2 1205,-1705.2 1205,-1705.2 1205,-1737.2149 1183.8881,-1742.2771 1156,-1758 1133.9836,-1770.4125 1068.8615,-1781.6845 1024.8374,-1788.1905"/>
<polygon fill="#000000" stroke="#000000" points="1024.0836,-1784.7631 1014.6892,-1789.6615 1025.0878,-1791.6907 1024.0836,-1784.7631"/>
<text text-anchor="middle" x="1208.5" y="-946.2" font-family="Times,serif" font-size="14.00" fill="#000000">1</text>
</g>
<!-- educacion -->
<g id="node35" class="node">
<title>educacion</title>
<ellipse fill="none" stroke="#000000" cx="1208" cy="-18" rx="50.3625" ry="18"/>
<text text-anchor="middle" x="1208" y="-13.8" font-family="Times,serif" font-size="14.00" fill="#000000">educacion</text>
</g>
<!-- ficcion&#45;&gt;educacion -->
<g id="edge72" class="edge">
<title>ficcion-&gt;educacion</title>
<path fill="none" stroke="#000000" d="M1208,-88.4006C1208,-76.2949 1208,-60.2076 1208,-46.4674"/>
<polygon fill="#000000" stroke="#000000" points="1211.5001,-46.072 1208,-36.072 1204.5001,-46.0721 1211.5001,-46.072"/>
<text text-anchor="middle" x="1211.5" y="-58.2" font-family="Times,serif" font-size="14.00" fill="#000000">1</text>
</g>
<!-- marketing&#45;&gt;economia -->
<g id="edge27" class="edge">
<title>marketing-&gt;economia</title>
<path fill="none" stroke="#000000" d="M179.3705,-36.3743C172.1652,-92.945 156.5694,-268.0936 219,-391.2 250.9852,-454.2713 319.2412,-504.0843 361.3199,-530.3493"/>
<polygon fill="#000000" stroke="#000000" points="359.5238,-533.3534 369.8793,-535.5928 363.1805,-527.3844 359.5238,-533.3534"/>
<text text-anchor="middle" x="191.5" y="-280.2" font-family="Times,serif" font-size="14.00" fill="#000000">1</text>
</g>
<!-- marketing&#45;&gt;fantasia -->
<g id="edge67" class="edge">
<title>marketing-&gt;fantasia</title>
<path fill="none" stroke="#000000" d="M141.6083,-28.9931C87.9896,-44.8013 0,-75.5097 0,-106.8 0,-550.8 0,-550.8 0,-550.8 0,-575.1779 14.9099,-598.6771 28.9135,-615.3718"/>
<polygon fill="#000000" stroke="#000000" points="26.4028,-617.8162 35.6458,-622.9947 31.6495,-613.1825 26.4028,-617.8162"/>
<text text-anchor="middle" x="3.5" y="-324.6" font-family="Times,serif" font-size="14.00" fill="#000000">1</text>
</g>
<!-- poesia&#45;&gt;fantasia -->
<g id="edge59" class="edge">
<title>poesia-&gt;fantasia</title>
<path fill="none" stroke="#000000" d="M549.9758,-722.7101C458.7078,-707.4472 208.1949,-665.5535 101.813,-647.7631"/>
<polygon fill="#000000" stroke="#000000" points="102.1166,-644.2653 91.6762,-646.0679 100.962,-651.1694 102.1166,-644.2653"/>
<text text-anchor="middle" x="370.5" y="-679.8" font-family="Times,serif" font-size="14.00" fill="#000000">1</text>
</g>
<!-- poesia&#45;&gt;biografia -->
<g id="edge29" class="edge">
<title>poesia-&gt;biografia</title>
<path fill="none" stroke="#000000" d="M582.8315,-710.0892C579.913,-664.3536 572.2884,-544.8719 568.7951,-490.1306"/>
<polygon fill="#000000" stroke="#000000" points="572.284,-489.8434 568.1542,-480.0866 565.2982,-490.2893 572.284,-489.8434"/>
<text text-anchor="middle" x="579.5" y="-591" font-family="Times,serif" font-size="14.00" fill="#000000">1</text>
</g>
<!-- poesia&#45;&gt;thriller -->
<g id="edge68" class="edge">
<title>poesia-&gt;thriller</title>
<path fill="none" stroke="#000000" d="M603.6172,-743.8052C621.7813,-759.9495 646,-787.116 646,-817.2 646,-1083.6 646,-1083.6 646,-1083.6 646,-1104.7104 640.0696,-1127.8372 634.3669,-1145.1961"/>
<polygon fill="#000000" stroke="#000000" points="631.0438,-1144.0965 631.082,-1154.6913 637.6591,-1146.3851 631.0438,-1144.0965"/>
<text text-anchor="middle" x="649.5" y="-946.2" font-family="Times,serif" font-size="14.00" fill="#000000">1</text>
</g>
<!-- drama -->
<g id="node28" class="node">
<title>drama</title>
<ellipse fill="none" stroke="#000000" cx="785" cy="-639.6" rx="35.3315" ry="18"/>
<text text-anchor="middle" x="785" y="-635.4" font-family="Times,serif" font-size="14.00" fill="#000000">drama</text>
</g>
<!-- poesia&#45;&gt;drama -->
<g id="edge41" class="edge">
<title>poesia-&gt;drama</title>
<path fill="none" stroke="#000000" d="M611.1078,-716.424C646.6705,-700.7127 709.1918,-673.0914 748.7811,-655.6012"/>
<polygon fill="#000000" stroke="#000000" points="750.589,-658.6289 758.3217,-651.3862 747.7602,-652.2259 750.589,-658.6289"/>
<text text-anchor="middle" x="706.5" y="-679.8" font-family="Times,serif" font-size="14.00" fill="#000000">1</text>
</g>
<!-- relatos -->
<g id="node32" class="node">
<title>relatos</title>
<ellipse fill="none" stroke="#000000" cx="695" cy="-195.6" rx="36.5536" ry="18"/>
<text text-anchor="middle" x="695" y="-191.4" font-family="Times,serif" font-size="14.00" fill="#000000">relatos</text>
</g>
<!-- poesia&#45;&gt;relatos -->
<g id="edge49" class="edge">
<title>poesia-&gt;relatos</title>
<path fill="none" stroke="#000000" d="M604.2985,-713.4818C610.9105,-707.6232 617.6586,-700.3836 622,-692.4 713.1472,-524.7869 641.2503,-454.1843 675,-266.4 677.6029,-251.9175 681.9133,-236.1318 685.8674,-223.1487"/>
<polygon fill="#000000" stroke="#000000" points="689.2669,-224.0051 688.9226,-213.4158 682.5882,-221.9085 689.2669,-224.0051"/>
<text text-anchor="middle" x="673.5" y="-457.8" font-family="Times,serif" font-size="14.00" fill="#000000">1</text>
</g>
<!-- musica -->
<g id="node27" class="node">
<title>musica</title>
<ellipse fill="none" stroke="#000000" cx="351" cy="-1172.4" rx="38.2799" ry="18"/>
<text text-anchor="middle" x="351" y="-1168.2" font-family="Times,serif" font-size="14.00" fill="#000000">musica</text>
</g>
<!-- terror&#45;&gt;musica -->
<g id="edge32" class="edge">
<title>terror-&gt;musica</title>
<path fill="none" stroke="#000000" d="M373.3338,-1243.23C369.4247,-1230.8327 364.1527,-1214.113 359.7125,-1200.0312"/>
<polygon fill="#000000" stroke="#000000" points="363.0031,-1198.8279 356.6578,-1190.3433 356.3271,-1200.933 363.0031,-1198.8279"/>
<text text-anchor="middle" x="371.5" y="-1212.6" font-family="Times,serif" font-size="14.00" fill="#000000">1</text>
</g>
<!-- musica&#45;&gt;viajes -->
<g id="edge50" class="edge">
<title>musica-&gt;viajes</title>
<path fill="none" stroke="#000000" d="M338.4868,-1189.8151C289.3108,-1258.4003 112,-1507.1137 112,-1527.6 112,-1705.2 112,-1705.2 112,-1705.2 112,-1747.1858 761.7252,-1782.9216 938.2139,-1791.8543"/>
<polygon fill="#000000" stroke="#000000" points="938.2648,-1795.3612 948.4281,-1792.368 938.6165,-1788.37 938.2648,-1795.3612"/>
<text text-anchor="middle" x="145.5" y="-1479" font-family="Times,serif" font-size="14.00" fill="#000000">1</text>
</g>
<!-- musica&#45;&gt;ensayo -->
<g id="edge33" class="edge">
<title>musica-&gt;ensayo</title>
<path fill="none" stroke="#000000" d="M362.2361,-1155.0476C382.5038,-1123.7472 425.2839,-1057.6799 449.0978,-1020.9029"/>
<polygon fill="#000000" stroke="#000000" points="452.2209,-1022.5191 454.7183,-1012.2228 446.3451,-1018.7144 452.2209,-1022.5191"/>
<text text-anchor="middle" x="423.5" y="-1079.4" font-family="Times,serif" font-size="14.00" fill="#000000">1</text>
</g>
<!-- drama&#45;&gt;viajes -->
<g id="edge42" class="edge">
<title>drama-&gt;viajes</title>
<path fill="none" stroke="#000000" d="M808.8068,-653.0958C858.7723,-683.3902 970,-762.0125 970,-861.6 970,-1128 970,-1128 970,-1128 970,-1213.8569 1046,-1219.7431 1046,-1305.6 1046,-1705.2 1046,-1705.2 1046,-1705.2 1046,-1731.8969 1026.7267,-1756.0347 1009.3332,-1772.3825"/>
<polygon fill="#000000" stroke="#000000" points="1006.6817,-1770.0576 1001.5499,-1779.3267 1011.3418,-1775.281 1006.6817,-1770.0576"/>
<text text-anchor="middle" x="1018.5" y="-1212.6" font-family="Times,serif" font-size="14.00" fill="#000000">1</text>
</g>
<!-- cine&#45;&gt;biografia -->
<g id="edge44" class="edge">
<title>cine-&gt;biografia</title>
<path fill="none" stroke="#000000" d="M540.35,-799.161C539.8684,-784.855 539.2535,-764.3512 539,-746.4 538.7741,-730.4016 538.1025,-726.3748 539,-710.4 543.5074,-630.1722 556.1419,-536.0549 562.7895,-490.1081"/>
<polygon fill="#000000" stroke="#000000" points="566.2811,-490.4197 564.2656,-480.0183 559.3548,-489.4063 566.2811,-490.4197"/>
<text text-anchor="middle" x="550.5" y="-635.4" font-family="Times,serif" font-size="14.00" fill="#000000">1</text>
</g>
<!-- cine&#45;&gt;poesia -->
<g id="edge58" class="edge">
<title>cine-&gt;poesia</title>
<path fill="none" stroke="#000000" d="M549.4954,-799.656C555.6204,-787.0071 564.001,-769.7002 570.969,-755.3105"/>
<polygon fill="#000000" stroke="#000000" points="574.314,-756.4333 575.5222,-745.9076 568.0138,-753.3825 574.314,-756.4333"/>
<text text-anchor="middle" x="570.5" y="-768.6" font-family="Times,serif" font-size="14.00" fill="#000000">1</text>
</g>
<!-- infantil -->
<g id="node30" class="node">
<title>infantil</title>
<ellipse fill="none" stroke="#000000" cx="1075" cy="-1172.4" rx="38.8594" ry="18"/>
<text text-anchor="middle" x="1075" y="-1168.2" font-family="Times,serif" font-size="14.00" fill="#000000">infantil</text>
</g>
<!-- infantil&#45;&gt;arte -->
<g id="edge45" class="edge">
<title>infantil-&gt;arte</title>
<path fill="none" stroke="#000000" d="M1065.1216,-1154.856C1057.8376,-1141.9196 1047.8103,-1124.1112 1039.6025,-1109.534"/>
<polygon fill="#000000" stroke="#000000" points="1042.4748,-1107.5015 1034.5186,-1100.5051 1036.3752,-1110.936 1042.4748,-1107.5015"/>
<text text-anchor="middle" x="1058.5" y="-1123.8" font-family="Times,serif" font-size="14.00" fill="#000000">1</text>
</g>
<!-- arte&#45;&gt;romance -->
<g id="edge63" class="edge">
<title>arte-&gt;romance</title>
<path fill="none" stroke="#000000" d="M1019.5275,-1065.7638C1014.5579,-1047.9685 1008,-1019.7576 1008,-994.8 1008,-994.8 1008,-994.8 1008,-284.4 1008,-260.1421 993.3714,-236.6356 979.6321,-219.9076"/>
<polygon fill="#000000" stroke="#000000" points="982.2144,-217.5429 973.0267,-212.2666 976.9187,-222.1207 982.2144,-217.5429"/>
<text text-anchor="middle" x="1011.5" y="-635.4" font-family="Times,serif" font-size="14.00" fill="#000000">1</text>
</g>
<!-- arte&#45;&gt;leyendas -->
<g id="edge46" class="edge">
<title>arte-&gt;leyendas</title>
<path fill="none" stroke="#000000" d="M1031.7601,-1065.8633C1037.8991,-1048.1435 1046,-1019.9886 1046,-994.8 1046,-994.8 1046,-994.8 1046,-195.6 1046,-185.7742 984.7111,-157.438 927,-142.8 867.6917,-127.7569 695.0543,-115.5159 605.8251,-109.9852"/>
<polygon fill="#000000" stroke="#000000" points="605.8262,-106.4788 595.6307,-109.3601 605.3977,-113.4657 605.8262,-106.4788"/>
<text text-anchor="middle" x="1049.5" y="-591" font-family="Times,serif" font-size="14.00" fill="#000000">1</text>
</g>
<!-- politica&#45;&gt;relatos -->
<g id="edge53" class="edge">
<title>politica-&gt;relatos</title>
<path fill="none" stroke="#000000" d="M718.1314,-266.43C714.0827,-254.0327 708.6225,-237.313 704.0237,-223.2312"/>
<polygon fill="#000000" stroke="#000000" points="707.2914,-221.9626 700.8599,-213.5433 700.6373,-224.1358 707.2914,-221.9626"/>
<text text-anchor="middle" x="716.5" y="-235.8" font-family="Times,serif" font-size="14.00" fill="#000000">1</text>
</g>
<!-- gastronomia -->
<g id="node34" class="node">
<title>gastronomia</title>
<ellipse fill="none" stroke="#000000" cx="982" cy="-1882.8" rx="58.5482" ry="18"/>
<text text-anchor="middle" x="982" y="-1878.6" font-family="Times,serif" font-size="14.00" fill="#000000">gastronomia</text>
</g>
<!-- gastronomia&#45;&gt;viajes -->
<g id="edge60" class="edge">
<title>gastronomia-&gt;viajes</title>
<path fill="none" stroke="#000000" d="M982,-1864.4006C982,-1852.2949 982,-1836.2076 982,-1822.4674"/>
<polygon fill="#000000" stroke="#000000" points="985.5001,-1822.072 982,-1812.072 978.5001,-1822.0721 985.5001,-1822.072"/>
<text text-anchor="middle" x="985.5" y="-1834.2" font-family="Times,serif" font-size="14.00" fill="#000000">1</text>
</g>
</g>
</svg>